<svg width="11" height="15" viewBox="0 0 11 15" fill="none" xmlns="http://www.w3.org/2000/svg">
<path d="M10.2557 3.89205L9.77273 5.53977H0.568182L1.05114 3.89205H10.2557ZM5.9375 15L0.738636 8.63636L0.710227 7.44318H3.29545C3.9678 7.44318 4.54072 7.34848 5.0142 7.15909C5.48769 6.96496 5.84991 6.67614 6.10085 6.29261C6.3518 5.90436 6.47727 5.41667 6.47727 4.82955C6.47727 3.96307 6.21686 3.28362 5.69602 2.79119C5.17519 2.29403 4.375 2.04545 3.29545 2.04545H0.568182L1.05114 0.454545H3.29545C4.45076 0.454545 5.39773 0.646306 6.13636 1.02983C6.87973 1.40862 7.42898 1.92945 7.78409 2.59233C8.14394 3.25047 8.32386 3.99621 8.32386 4.82955C8.32386 5.58239 8.15814 6.27604 7.8267 6.91051C7.5 7.54025 6.97443 8.04687 6.25 8.4304C5.5303 8.81392 4.5786 9.00568 3.39489 9.00568H3.35227L8.15341 14.8864V15H5.9375ZM10.2557 0.454545L9.77273 2.10227L2.52841 2.04545L3.01136 0.454545H10.2557Z" fill="#708C91"/>
</svg>
